<svg id="Logo_1_" data-name="Logo (1)" xmlns="http://www.w3.org/2000/svg" width="350.615" height="77" viewBox="0 0 350.615 77">
  <path id="Path_3007" data-name="Path 3007" d="M136.888,29.47c3.538,0,5.488-1.805,5.488-5.127V16.4h-2.888v7.943c0,1.95-.722,2.744-2.6,2.744-2.239,0-2.6-1.372-2.6-2.744V16.4H131.4v7.943C131.472,27.665,133.35,29.47,136.888,29.47Z" transform="translate(-39.854 -4.558)" fill="#007bc0"/>
  <path id="Path_3008" data-name="Path 3008" d="M159.588,24.821,154.316,16.3H151.5V29.153h2.672V20.633l5.271,8.449v.072h2.888V16.3h-2.744Z" transform="translate(-45.949 -4.53)" fill="#007bc0"/>
  <rect id="Rectangle_2262" data-name="Rectangle 2262" width="2.888" height="12.781" transform="translate(120.418 11.77)" fill="#007bc0"/>
  <path id="Path_3009" data-name="Path 3009" d="M185.116,29.153h3.249l4.188-12.781.072-.072h-3.033l-2.816,8.954L183.961,16.3H181l4.116,12.781Z" transform="translate(-54.907 -4.53)" fill="#007bc0"/>
  <path id="Path_3010" data-name="Path 3010" d="M210.848,26.7h-6.86V23.665h6.138V21.355h-6.138v-2.6H210.7V16.3h-9.6V29.153h9.748Z" transform="translate(-60.977 -4.53)" fill="#007bc0"/>
  <path id="Path_3011" data-name="Path 3011" d="M222.261,24.2H225c1.3,0,1.877.505,2.094,1.877a5.116,5.116,0,0,1,.072,1.011,8.409,8.409,0,0,0,.361,2.022h2.888l-.072-.072a5.649,5.649,0,0,1-.505-2.527v-.433c-.144-1.661-.722-2.672-1.805-2.961a3.2,3.2,0,0,0,1.95-3.177,3.512,3.512,0,0,0-3.755-3.538H219.3V29.109h2.888l.072-4.91Zm0-5.632h3.033c1.3,0,1.877.578,1.877,1.733,0,1.228-.578,1.805-1.877,1.805h-3.033Z" transform="translate(-66.517 -4.558)" fill="#007bc0"/>
  <path id="Path_3012" data-name="Path 3012" d="M243.316,29.359c3.322,0,5.344-1.589,5.344-4.116,0-2.816-2.672-3.466-3.683-3.755l-.433-.072c-2.961-.722-3.466-.867-3.466-1.805,0-1.011,1.011-1.372,1.877-1.372,1.589,0,2.383.578,2.455,1.877v.072h2.816v-.072c0-2.6-1.95-4.116-5.127-4.116-2.383,0-4.766,1.372-4.766,3.9,0,2.455,1.95,3.177,3.827,3.683.289.072.578.144.794.217,1.589.361,2.961.722,2.961,1.877,0,1.444-1.877,1.516-2.455,1.516-1.733,0-2.744-.867-2.744-2.311V24.81H237.9v.072a4.081,4.081,0,0,0,1.155,3.033A6.3,6.3,0,0,0,243.316,29.359Z" transform="translate(-72.152 -4.446)" fill="#007bc0"/>
  <rect id="Rectangle_2263" data-name="Rectangle 2263" width="2.888" height="12.781" transform="translate(179.685 11.77)" fill="#007bc0"/>
  <path id="Path_3013" data-name="Path 3013" d="M269.127,29.153h2.888v-10.4h3.827V16.3H265.3v2.455h3.827Z" transform="translate(-80.458 -4.53)" fill="#007bc0"/>
  <path id="Path_3014" data-name="Path 3014" d="M279.8,29.181h2.961l1.011-2.816h4.694l.939,2.816h2.961L287.6,16.4h-2.961L279.8,29.181Zm4.621-5.055,1.589-4.549,1.589,4.549Z" transform="translate(-84.897 -4.558)" fill="#007bc0"/>
  <path id="Path_3015" data-name="Path 3015" d="M301.055,29.153h2.888v-10.4h3.827V16.3H297.3v2.455h3.755Z" transform="translate(-90.162 -4.53)" fill="#007bc0"/>
  <path id="Path_3016" data-name="Path 3016" d="M325.788,24.532h2.888c3.249,0,4.477-2.094,4.477-4.116S332,16.3,328.677,16.3H322.9V29.081h2.888Zm0-5.993h2.166c1.228,0,2.455.217,2.455,1.877s-1.228,1.877-2.455,1.877h-2.166Z" transform="translate(-97.92 -4.53)" fill="#007bc0"/>
  <path id="Path_3017" data-name="Path 3017" d="M345.382,29.331c3.683,0,6.282-2.744,6.282-6.643,0-4.044-2.527-6.788-6.282-6.788s-6.282,2.744-6.282,6.788C339.1,26.587,341.7,29.331,345.382,29.331Zm-3.394-6.643c0-1.011.217-4.333,3.394-4.333s3.394,3.322,3.394,4.333c0,2.022-.867,4.188-3.394,4.188S341.988,24.71,341.988,22.688Z" transform="translate(-102.89 -4.419)" fill="#007bc0"/>
  <path id="Path_3018" data-name="Path 3018" d="M362.988,16.3H360.1V29.153h9.026V26.7h-6.138Z" transform="translate(-109.17 -4.53)" fill="#007bc0"/>
  <rect id="Rectangle_2264" data-name="Rectangle 2264" width="2.888" height="12.781" transform="translate(262.242 11.77)" fill="#007bc0"/>
  <path id="Path_3019" data-name="Path 3019" d="M384,18.755h3.827v10.4h2.816v-10.4h3.827V16.3H384Z" transform="translate(-116.455 -4.53)" fill="#007bc0"/>
  <path id="Path_3020" data-name="Path 3020" d="M404.988,23.665h6.138V21.355h-6.138v-2.6H411.7V16.3h-9.6V29.153h9.748V26.7h-6.86Z" transform="translate(-121.923 -4.53)" fill="#007bc0"/>
  <path id="Path_3021" data-name="Path 3021" d="M408.694,13.8l-1.805-2.6H404l2.816,2.6Z" transform="translate(-124.656 -3.112)" fill="#007bc0"/>
  <path id="Path_3022" data-name="Path 3022" d="M427.7,24.032c-.217,1.805-1.3,2.816-2.816,2.816-2.527,0-3.394-2.166-3.394-4.188,0-1.011.217-4.333,3.394-4.333a2.683,2.683,0,0,1,2.744,2.166h2.816v-.072c-.289-2.816-2.527-4.621-5.56-4.621-3.755,0-6.282,2.744-6.282,6.788,0,3.9,2.6,6.643,6.282,6.643a5.469,5.469,0,0,0,5.632-5.271v-.072l-2.816.144Z" transform="translate(-128.714 -4.391)" fill="#007bc0"/>
  <path id="Path_3023" data-name="Path 3023" d="M446.66,24.821,441.388,16.3H438.5V29.153h2.744V20.633l5.271,8.449v.072h2.816V16.3H446.66Z" transform="translate(-134.244 -4.53)" fill="#007bc0"/>
  <rect id="Rectangle_2265" data-name="Rectangle 2265" width="2.888" height="12.781" transform="translate(319.204 11.77)" fill="#007bc0"/>
  <path id="Path_3024" data-name="Path 3024" d="M476.6,24.032c-.217,1.805-1.3,2.816-2.816,2.816-2.527,0-3.394-2.166-3.394-4.188,0-1.011.217-4.333,3.394-4.333a2.739,2.739,0,0,1,2.744,2.166h2.816v-.072c-.289-2.816-2.527-4.621-5.56-4.621-3.755,0-6.282,2.744-6.282,6.788,0,3.9,2.6,6.643,6.282,6.643a5.469,5.469,0,0,0,5.632-5.271v-.072l-2.816.144Z" transform="translate(-142.303 -4.391)" fill="#007bc0"/>
  <path id="Path_3025" data-name="Path 3025" d="M493.2,16.3h-2.961L485.4,29.081v.072h2.888l1.011-2.816h4.694l.939,2.816h2.961Zm0,7.8h-3.177l1.589-4.549Z" transform="translate(-147.277 -4.53)" fill="#007bc0"/>
  <path id="Path_3026" data-name="Path 3026" d="M137.06,46.4H131.5V59.181h5.56c3.611,0,5.849-2.455,5.849-6.5C142.909,48.711,140.671,46.4,137.06,46.4Zm-2.672,2.383h1.95c2.527,0,3.611,1.3,3.611,4.188,0,2.383-1.155,3.755-3.105,3.755h-2.455Z" transform="translate(-39.889 -14.256)" fill="#007bc0"/>
  <path id="Path_3027" data-name="Path 3027" d="M153.688,53.693h6.138V51.455h-6.138V48.783H160.4V46.4h-9.6V59.181h9.748V56.726h-6.86Z" transform="translate(-45.725 -14.256)" fill="#007bc0"/>
  <path id="Path_3028" data-name="Path 3028" d="M186.715,54.1h0l-2.816-.072h0c-.217,1.805-1.3,2.816-2.816,2.816-2.527,0-3.394-2.166-3.394-4.188,0-1.011.217-4.333,3.394-4.333a2.683,2.683,0,0,1,2.744,2.166h2.816v-.072c-.289-2.816-2.527-4.621-5.56-4.621-3.755,0-6.282,2.744-6.282,6.788,0,3.9,2.6,6.643,6.282,6.643A5.3,5.3,0,0,0,186.715,54.1Z" transform="translate(-53.03 -14.085)" fill="#007bc0"/>
  <path id="Path_3029" data-name="Path 3029" d="M204.992,59.181,200.226,46.4h-2.961L192.5,59.109v.072h2.888l1.011-2.816h4.694l.939,2.816ZM200.3,54.2h-3.177l1.589-4.549Z" transform="translate(-58.407 -14.256)" fill="#007bc0"/>
  <path id="Path_3030" data-name="Path 3030" d="M220.443,46.4H209.9v2.383h3.827v10.4h2.888v-10.4h3.827Z" transform="translate(-63.657 -14.256)" fill="#007bc0"/>
  <path id="Path_3031" data-name="Path 3031" d="M224.2,59.109h0l2.888.072,1.011-2.816h4.694l.939,2.816h2.961L232,46.4h-2.961Zm4.621-4.91,1.589-4.549L232,54.2Z" transform="translate(-68.026 -14.256)" fill="#007bc0"/>
  <path id="Path_3032" data-name="Path 3032" d="M244.4,46.4V59.181h9.1V56.726h-6.21V46.4Z" transform="translate(-74.095 -14.256)" fill="#007bc0"/>
  <path id="Path_3033" data-name="Path 3033" d="M266.788,54.343c0,1.95-.722,2.744-2.6,2.744-2.311,0-2.6-1.372-2.6-2.744V46.4H258.7v7.943c0,3.394,1.877,5.127,5.488,5.127,3.538,0,5.488-1.805,5.488-5.127V46.4h-2.888Z" transform="translate(-78.465 -14.262)" fill="#007bc0"/>
  <path id="Path_3034" data-name="Path 3034" d="M287.26,54.849,281.988,46.4H279.1V59.181h2.744V50.733l5.2,8.449h2.888V46.4H287.26Z" transform="translate(-84.649 -14.256)" fill="#007bc0"/>
  <path id="Path_3035" data-name="Path 3035" d="M309.048,46.4h-3.177l-2.961,4.982L299.949,46.4H296.7l4.694,7.8v4.982h2.888v-4.91Z" transform="translate(-90.02 -14.256)" fill="#007bc0"/>
  <path id="Path_3036" data-name="Path 3036" d="M325.465,59.181,320.7,46.4h-2.961L312.9,59.109v.072h2.888l1.011-2.816h4.694l.939,2.816ZM320.7,54.2h-3.177l1.589-4.549Z" transform="translate(-94.94 -14.256)" fill="#007bc0"/>
  <path id="Path_3037" data-name="Path 3037" d="M139.426,82.366a2.89,2.89,0,0,0,1.372-1.083,2.956,2.956,0,0,0,.505-1.805,2.991,2.991,0,0,0-.433-1.661,2.9,2.9,0,0,0-1.083-1.011,2.162,2.162,0,0,0-.722-.289c-.289-.072-.578-.072-.867-.144-.289,0-.65-.072-.939-.072H131.7V89.081h6.21a3.805,3.805,0,0,0,1.661-.289A5.142,5.142,0,0,0,140.8,88a2.827,2.827,0,0,0,.722-1.155,4.2,4.2,0,0,0,.217-1.372,3.228,3.228,0,0,0-.65-2.022A2.6,2.6,0,0,0,139.426,82.366Zm-5.921.939h3.827a4.441,4.441,0,0,1,1.011.072,1.854,1.854,0,0,1,.867.361,1.7,1.7,0,0,1,.578.65A2.1,2.1,0,0,1,140,85.4a2.175,2.175,0,0,1-.65,1.661,2.635,2.635,0,0,1-1.733.578h-4.188V83.3Zm5.416-1.95a3.09,3.09,0,0,1-2.022.505h-3.322V77.889H136.9a4.44,4.44,0,0,1,1.011.072,4.071,4.071,0,0,1,.867.289,2.2,2.2,0,0,1,.578.578,2.029,2.029,0,0,1,.217,1.083A2.077,2.077,0,0,1,138.921,81.355Z" transform="translate(-39.936 -23.924)" fill="#007bc0"/>
  <path id="Path_3038" data-name="Path 3038" d="M152.582,76.4,147.6,89.181h1.805l1.444-3.827h5.344l1.372,3.827h1.95L154.532,76.4Zm3.033,7.438h-4.188l2.094-5.849Z" transform="translate(-44.778 -23.951)" fill="#007bc0"/>
  <path id="Path_3039" data-name="Path 3039" d="M177.265,88.442l-.217-.867a4.118,4.118,0,0,1-.072-.939,4.117,4.117,0,0,0-.072-.939c-.072-.289-.072-.578-.144-.867a2.587,2.587,0,0,0-.289-.794,2.2,2.2,0,0,0-.578-.578,2.669,2.669,0,0,0-.794-.361,2.713,2.713,0,0,0,1.589-1.155,3.829,3.829,0,0,0,.505-2.022,3.207,3.207,0,0,0-1.011-2.455,4.445,4.445,0,0,0-2.888-.867H167.3V89.381h1.805V83.965h4.116a2.1,2.1,0,0,1,1.011.217,1.338,1.338,0,0,1,.578.505,2.259,2.259,0,0,1,.361.722,3.625,3.625,0,0,1,.144.867,4.117,4.117,0,0,1,.072.939v.939c0,.289.072.505.072.794a4.972,4.972,0,0,0,.217.578H177.7l-.072-.072C177.482,88.948,177.337,88.731,177.265,88.442Zm-8.16-10.47h4.188a2.378,2.378,0,0,1,1.733.578,2.146,2.146,0,0,1,.505,1.516,2.411,2.411,0,0,1-.217,1.083,1.417,1.417,0,0,1-.65.65,3.627,3.627,0,0,1-.939.361,5.465,5.465,0,0,1-1.083.072h-3.466l-.072-4.26Z" transform="translate(-50.736 -24.007)" fill="#007bc0"/>
  <path id="Path_3040" data-name="Path 3040" d="M195.187,84.149a4.669,4.669,0,0,1-.289,1.444,3.145,3.145,0,0,1-.722,1.155,2.857,2.857,0,0,1-1.083.722,4.669,4.669,0,0,1-1.444.289,4.3,4.3,0,0,1-1.95-.433,3.354,3.354,0,0,1-1.3-1.155,5.9,5.9,0,0,1-.794-1.661,9.135,9.135,0,0,1-.217-2.022,8.964,8.964,0,0,1,.217-1.95,5.028,5.028,0,0,1,.794-1.661,3.957,3.957,0,0,1,1.3-1.155,3.9,3.9,0,0,1,1.95-.433,4.123,4.123,0,0,1,2.311.65,2.959,2.959,0,0,1,1.228,2.022h1.805v-.072a4.827,4.827,0,0,0-.578-1.805,4.982,4.982,0,0,0-1.155-1.3,5.459,5.459,0,0,0-1.589-.794,7.85,7.85,0,0,0-1.877-.289,5.764,5.764,0,0,0-2.6.505,5.716,5.716,0,0,0-3.033,3.611,7.811,7.811,0,0,0-.361,2.6,9.828,9.828,0,0,0,.361,2.6,6.4,6.4,0,0,0,1.083,2.094,5.437,5.437,0,0,0,1.877,1.444,5.764,5.764,0,0,0,2.6.505,5.252,5.252,0,0,0,3.9-1.372,5.688,5.688,0,0,0,1.661-3.755V83.86l-2.094.289Z" transform="translate(-56.361 -23.757)" fill="#007bc0"/>
  <path id="Path_3041" data-name="Path 3041" d="M207.233,83.332h6.643V81.888h-6.643V77.916h7.149V76.4H205.5V89.181h8.882V87.665h-7.149Z" transform="translate(-62.298 -23.951)" fill="#007bc0"/>
  <path id="Path_3042" data-name="Path 3042" d="M224.405,76.4H222.6V89.181h8.521V87.665h-6.716Z" transform="translate(-67.476 -23.951)" fill="#007bc0"/>
  <path id="Path_3043" data-name="Path 3043" d="M245.959,77.994a5.092,5.092,0,0,0-1.95-1.516,6.467,6.467,0,0,0-5.344,0,5.7,5.7,0,0,0-1.95,1.516,7.8,7.8,0,0,0-1.155,2.166,7.391,7.391,0,0,0-.361,2.527,9.711,9.711,0,0,0,.361,2.527,7.8,7.8,0,0,0,1.155,2.166,5.9,5.9,0,0,0,1.95,1.516,6.467,6.467,0,0,0,5.344,0,5.7,5.7,0,0,0,1.95-1.516,7.8,7.8,0,0,0,1.155-2.166,7.391,7.391,0,0,0,.361-2.527,9.711,9.711,0,0,0-.361-2.527A5.208,5.208,0,0,0,245.959,77.994Zm-4.549,9.821a3.9,3.9,0,0,1-1.95-.433,3.751,3.751,0,0,1-1.372-1.228,7.028,7.028,0,0,1-.794-1.661,8.325,8.325,0,0,1-.217-1.877,7.871,7.871,0,0,1,.217-1.877,4.431,4.431,0,0,1,.794-1.661,4.526,4.526,0,0,1,1.372-1.228,4.3,4.3,0,0,1,1.95-.433,3.9,3.9,0,0,1,1.95.433,3.75,3.75,0,0,1,1.372,1.228,5.028,5.028,0,0,1,.794,1.661,8.244,8.244,0,0,1,0,3.755,4.431,4.431,0,0,1-.794,1.661,4.526,4.526,0,0,1-1.372,1.228A4.3,4.3,0,0,1,241.41,87.815Z" transform="translate(-71.359 -23.812)" fill="#007bc0"/>
  <path id="Path_3044" data-name="Path 3044" d="M265.293,86.654,258.577,76.4H256.7V89.181h1.733V79L265,89.181h1.95V76.4h-1.661Z" transform="translate(-77.845 -23.951)" fill="#007bc0"/>
  <path id="Path_3045" data-name="Path 3045" d="M279.382,76.4,274.4,89.181h1.805l1.444-3.827h5.344l1.372,3.827h1.95L281.332,76.4Zm3.033,7.438h-4.188l2.094-5.849Z" transform="translate(-83.245 -23.951)" fill="#007bc0"/>
  <path id="Path_3046" data-name="Path 3046" d="M291.7,78.855h3.827V89.181h2.888V78.855h3.827V76.4H291.7Z" transform="translate(-88.465 -23.951)" fill="#007bc0"/>
  <path id="Path_3047" data-name="Path 3047" d="M312.388,83.693h6.21V81.455h-6.21v-2.6H319.1V76.4h-9.6V89.181h9.748V86.726h-6.86Z" transform="translate(-93.845 -23.951)" fill="#007bc0"/>
  <path id="Path_3048" data-name="Path 3048" d="M335.2,84.132c-.217,1.805-1.3,2.816-2.816,2.816-2.527,0-3.394-2.166-3.394-4.188,0-1.011.217-4.333,3.394-4.333a2.739,2.739,0,0,1,2.744,2.166h2.816v-.072c-.289-2.816-2.527-4.621-5.56-4.621-3.755,0-6.282,2.744-6.282,6.788,0,3.9,2.6,6.643,6.282,6.643a5.421,5.421,0,0,0,5.632-5.271v-.072l-2.816.144Z" transform="translate(-98.93 -23.812)" fill="#007bc0"/>
  <path id="Path_3049" data-name="Path 3049" d="M353.343,81.238h-5.055V76.4H345.4V89.181h2.888V83.693h5.055v5.488h2.888V76.4h-2.888Z" transform="translate(-104.758 -23.951)" fill="#007bc0"/>
  <g id="Group_3691" data-name="Group 3691">
    <g id="Group_3690" data-name="Group 3690">
      <path id="Path_3050" data-name="Path 3050" d="M40.8,55.727H39.282v3H40.8a1.353,1.353,0,0,0,1.372-1.534C42.171,56.355,41.882,55.727,40.8,55.727ZM39.86,0C17.836,0,0,17.227,0,38.5S17.836,77,39.86,77,79.72,59.773,79.72,38.5C79.792,17.227,61.884,0,39.86,0Zm.217,10.88a5.513,5.513,0,1,1-5.7,5.51A5.577,5.577,0,0,1,40.077,10.88Zm0,13.043a5.513,5.513,0,1,1-5.7,5.51A5.577,5.577,0,0,1,40.077,23.923ZM26.212,10.88a5.513,5.513,0,1,1-5.7,5.51A5.577,5.577,0,0,1,26.212,10.88Zm0,13.043a5.513,5.513,0,1,1-5.7,5.51A5.577,5.577,0,0,1,26.212,23.923Zm0,13.391a5.513,5.513,0,1,1-5.7,5.51A5.577,5.577,0,0,1,26.212,37.314Zm6.716,23.365a4.564,4.564,0,0,1-1.877,4.255,6.645,6.645,0,0,1-3.9.976,6.645,6.645,0,0,1-3.9-.976,4.564,4.564,0,0,1-1.877-4.255V52.937H25.2v7.742a1.861,1.861,0,0,0,.65,1.744,1.722,1.722,0,0,0,1.3.418,2.214,2.214,0,0,0,1.3-.418,1.994,1.994,0,0,0,.65-1.744V52.937h3.827v7.742Zm7.149-23.365a5.513,5.513,0,1,1-5.7,5.51A5.577,5.577,0,0,1,40.077,37.314Zm4.044,23.5c-.722.488-1.589.7-3.683.7H39.354V65.7H36.033V52.937h5.488c2.672,0,4.333,1.534,4.333,4.394A4.185,4.185,0,0,1,44.12,60.819Zm13.72-4.045a3.409,3.409,0,0,0-2.816-.976,3.561,3.561,0,0,0,0,7.114,4.083,4.083,0,0,0,2.816-.976v3.278a5.944,5.944,0,0,1-3.177.767,6.429,6.429,0,0,1-6.788-6.626,6.548,6.548,0,0,1,6.716-6.7,7.358,7.358,0,0,1,3.249.767Zm-4.26-8.509a5.513,5.513,0,1,1,5.7-5.51A5.577,5.577,0,0,1,53.58,48.264Zm0-13.391a5.513,5.513,0,1,1,5.7-5.51A5.577,5.577,0,0,1,53.58,34.873Zm0-12.973a5.513,5.513,0,1,1,0-11.02,5.622,5.622,0,0,1,5.7,5.51A5.622,5.622,0,0,1,53.58,21.9Z" fill="#007bc0"/>
    </g>
  </g>
</svg>
